<svg width="14" height="16" viewBox="0 0 14 16" fill="none" xmlns="http://www.w3.org/2000/svg">
<path d="M0.728027 9.66396V0.959961H4.31203V9.66396H0.728027Z" fill="#0D0DE6"/>
<path d="M9.59656 0.959961C9.59656 3.94415 9.59656 6.99534 9.59656 9.97953C9.6007 10.1314 9.57041 10.2822 9.50797 10.4207C9.44553 10.5592 9.35255 10.6818 9.23599 10.7793C9.09756 10.896 8.94409 10.9937 8.77968 11.0696C8.35735 11.2528 7.90441 11.3553 7.44429 11.3718C7.04108 11.3963 6.63788 11.3907 6.23398 11.3997H6.104V15.04C6.25844 15.04 6.394 15.04 6.52957 15.04C7.44383 15.0402 8.35552 14.9434 9.24926 14.751C9.9519 14.606 10.6259 14.3467 11.2443 13.9833C12.0423 13.4948 12.6279 12.8318 12.9598 11.9546C13.1746 11.366 13.2802 10.7434 13.2715 10.117C13.2715 7.07211 13.2715 4.00766 13.2715 0.962752H9.59586" fill="#0D0DE6"/>
<path d="M4.31203 11.4561H0.728027V15.0401H4.31203V11.4561Z" fill="#FF4331"/>
</svg>
