<svg width="12" height="13" viewBox="0 0 12 13" fill="none" xmlns="http://www.w3.org/2000/svg">
<path d="M8.375 1C8.01 1 7.6648 1.09281 7.3623 1.25781L2.6377 3.74512C1.9627 4.10012 1.5 4.81 1.5 5.625C1.5 6.6725 2.26031 7.54277 3.25781 7.71777L2.66797 7.97754C1.97547 8.33004 1.5 9.0475 1.5 9.875C1.5 11.0475 2.4525 12 3.625 12C3.9925 12 4.3377 11.9072 4.6377 11.7422L9.29492 9.29004C10.0074 8.94754 10.5 8.2175 10.5 7.375C10.5 6.3275 9.73969 5.45723 8.74219 5.28223L9.33203 5.02246C10.0245 4.66996 10.5 3.9525 10.5 3.125C10.5 1.9525 9.5475 1 8.375 1ZM5 5L7.5 6.5L5 8V5Z" fill="#CD201F"/>
</svg>
