<svg width="126" height="90" viewBox="0 0 126 90" fill="none" xmlns="http://www.w3.org/2000/svg">
<rect width="120" height="90" transform="translate(3)" fill="var(--color-white)" fill-opacity="0.01"/>
<rect x="18.375" y="0.375" width="89.25" height="89.25" rx="44.625" fill="var(--color-primary-50)"/>
<rect x="18.375" y="0.375" width="89.25" height="89.25" rx="44.625" stroke="var(--color-primary-100)" stroke-width="0.75"/>
<g opacity="0.6">
<rect x="15.5" y="38.6318" width="95" height="44" rx="7.5" fill="var(--color-white)"/>
<rect x="15.5" y="38.6318" width="95" height="44" rx="7.5" stroke="var(--color-gray-200)"/>
</g>
<g opacity="0.8">
<rect x="8.09567" y="30.417" width="107" height="44" rx="7.5" transform="rotate(-4 8.09567 30.417)" fill="var(--color-white)"/>
<rect x="8.09567" y="30.417" width="107" height="44" rx="7.5" transform="rotate(-4 8.09567 30.417)" stroke="var(--color-gray-200)"/>
</g>
<rect x="1.01736" y="23.1267" width="119" height="44" rx="7.5" transform="rotate(-8 1.01736 23.1267)" fill="var(--color-white)"/>
<rect x="13.8667" y="31.9238" width="60" height="9" rx="2" transform="rotate(-8 13.8667 31.9238)" fill="var(--color-primary-500)"/>
<rect x="15.8152" y="45.7881" width="42" height="9" rx="2" transform="rotate(-8 15.8152 45.7881)" fill="var(--color-primary-100)"/>
<rect x="98.3794" y="26.1052" width="11" height="11" rx="1.5" transform="rotate(-8 98.3794 26.1052)" fill="var(--color-gray-50)"/>
<rect x="98.3794" y="26.1052" width="11" height="11" rx="1.5" transform="rotate(-8 98.3794 26.1052)" stroke="var(--color-gray-200)"/>
<rect x="1.01736" y="23.1267" width="119" height="44" rx="7.5" transform="rotate(-8 1.01736 23.1267)" stroke="var(--color-gray-200)"/>
<g clip-path="url(#clip0_2646_9782)">
<path opacity="0.4" d="M119.877 6.55986L120.75 4.46525L122.845 3.59197C122.891 3.56864 122.931 3.53273 122.958 3.48826C122.986 3.4438 123 3.39254 123 3.34025C123 3.28795 122.986 3.2367 122.958 3.19223C122.931 3.14777 122.891 3.11185 122.845 3.08853L120.75 2.21525L119.877 0.120638C119.853 0.0738356 119.818 0.0344635 119.773 0.00694307C119.729 -0.0205774 119.677 -0.0351562 119.625 -0.0351562C119.573 -0.0351563 119.521 -0.0205774 119.477 0.00694307C119.433 0.0344635 119.397 0.0738356 119.373 0.120638L118.5 2.21525L116.405 3.08853C116.359 3.11185 116.319 3.14777 116.292 3.19223C116.264 3.2367 116.25 3.28795 116.25 3.34025C116.25 3.39254 116.264 3.4438 116.292 3.48826C116.319 3.53273 116.359 3.56864 116.405 3.59197L118.5 4.46525L119.373 6.55986C119.397 6.60666 119.433 6.64603 119.477 6.67355C119.521 6.70107 119.573 6.71565 119.625 6.71565C119.677 6.71565 119.729 6.70107 119.773 6.67355C119.818 6.64603 119.853 6.60666 119.877 6.55986ZM119.373 11.3706L118.5 13.4652L116.405 14.3385C116.359 14.3619 116.319 14.3978 116.292 14.4422C116.264 14.4867 116.25 14.538 116.25 14.5902C116.25 14.6425 116.264 14.6938 116.292 14.7383C116.319 14.7827 116.359 14.8186 116.405 14.842L118.5 15.7152L119.373 17.8099C119.397 17.8567 119.433 17.896 119.477 17.9236C119.521 17.9511 119.573 17.9657 119.625 17.9657C119.677 17.9657 119.729 17.9511 119.773 17.9236C119.818 17.896 119.853 17.8567 119.877 17.8099L120.75 15.7152L122.845 14.842C122.891 14.8186 122.931 14.7827 122.958 14.7383C122.986 14.6938 123 14.6425 123 14.5902C123 14.538 122.986 14.4867 122.958 14.4422C122.931 14.3978 122.891 14.3619 122.845 14.3385L120.75 13.4652L119.877 11.3706C119.853 11.3238 119.818 11.2845 119.773 11.2569C119.729 11.2294 119.677 11.2148 119.625 11.2148C119.573 11.2148 119.521 11.2294 119.477 11.2569C119.433 11.2845 119.397 11.3238 119.373 11.3706Z" fill="var(--color-primary-500)" />
<path d="M118.5 8.95228C118.5 8.84777 118.471 8.74534 118.416 8.65639C118.361 8.56744 118.283 8.49547 118.189 8.44849L114.232 6.46603L112.253 2.50146C112.062 2.11931 111.438 2.11931 111.247 2.50146L109.268 6.46603L105.311 8.44849C105.217 8.49503 105.138 8.56687 105.083 8.65592C105.027 8.74496 104.998 8.84766 104.998 8.95245C104.998 9.05724 105.027 9.15994 105.083 9.24899C105.138 9.33803 105.217 9.40987 105.311 9.45642L109.268 11.4389L111.247 15.4034C111.294 15.4969 111.365 15.5754 111.454 15.6303C111.543 15.6852 111.646 15.7143 111.75 15.7143C111.854 15.7143 111.957 15.6852 112.046 15.6303C112.135 15.5754 112.206 15.4969 112.253 15.4034L114.232 11.4389L118.189 9.45712C118.283 9.41002 118.361 9.33788 118.416 9.24874C118.471 9.15959 118.5 9.05696 118.5 8.95228Z" fill="var(--color-primary-500)"/>
</g>
<defs>
<clipPath id="clip0_2646_9782">
<rect width="18" height="18" fill="var(--color-white)" transform="translate(105)" />
</clipPath>
</defs>
</svg>
