<svg width="36" height="37" viewBox="0 0 36 37" fill="none" xmlns="http://www.w3.org/2000/svg">
<rect y="0.5" width="36" height="36" rx="8" fill="#F5F5F4"/>
<path d="M12 15.25C12 14.4297 12.6562 13.75 13.5 13.75H22.5C23.3203 13.75 24 14.4297 24 15.25V22.75C24 23.5938 23.3203 24.25 22.5 24.25H13.5C12.6562 24.25 12 23.5938 12 22.75V15.25ZM19.5703 17.7578C19.4766 17.5938 19.2891 17.5 19.125 17.5C18.9375 17.5 18.75 17.5938 18.6562 17.7578L16.6172 20.7578L15.9844 19.9609C15.8906 19.8438 15.7266 19.75 15.5625 19.75C15.375 19.75 15.2109 19.8438 15.1172 19.9609L13.6172 21.8359C13.4766 22.0234 13.4531 22.2578 13.5469 22.4453C13.6406 22.6328 13.8281 22.75 14.0625 22.75H16.3125H17.0625H21.9375C22.125 22.75 22.3359 22.6562 22.4297 22.4688C22.5234 22.2812 22.5 22.0469 22.3828 21.8828L19.5703 17.7578ZM14.625 17.5C15.0234 17.5 15.375 17.2891 15.5859 16.9375C15.7969 16.6094 15.7969 16.1641 15.5859 15.8125C15.375 15.4844 15.0234 15.25 14.625 15.25C14.2031 15.25 13.8516 15.4844 13.6406 15.8125C13.4297 16.1641 13.4297 16.6094 13.6406 16.9375C13.8516 17.2891 14.2031 17.5 14.625 17.5Z" fill="#9CA3AF"/>
</svg>
