<svg width="40" height="56" viewBox="0 0 40 56" fill="none" xmlns="http://www.w3.org/2000/svg">
<g clip-path="url(#clip0_625_86)">
<rect width="40" height="56" rx="8" fill="#F9FAFB"/>
<path d="M-2 56H22.5178C26.0564 56 27.8522 51.743 25.3827 49.2085L9.53158 32.9403C7.96151 31.3289 5.37182 31.3289 3.80175 32.9403L-4.86492 41.835C-5.59271 42.582 -6 43.5836 -6 44.6265V52C-6 54.2091 -4.20914 56 -2 56Z" fill="#E5E7EB"/>
<path d="M37 56H3.31383C-0.200047 56 -2.00641 51.794 0.413096 49.2458L22.4326 26.055C24.0097 24.394 26.6569 24.394 28.2341 26.055L39.9007 38.3423C40.6065 39.0856 41 40.0715 41 41.0965V52C41 54.2091 39.2091 56 37 56Z" fill="#9CA3AF"/>
<rect x="9" y="11" width="8" height="8" rx="4" fill="#9CA3AF"/>
</g>
<rect x="0.5" y="0.5" width="39" height="55" rx="7.5" stroke="#E5E7EB"/>
<defs>
<clipPath id="clip0_625_86">
<rect width="40" height="56" rx="8" fill="white"/>
</clipPath>
</defs>
</svg>
