<svg width="16" height="19" viewBox="0 0 16 19" fill="none" xmlns="http://www.w3.org/2000/svg">
<path d="M8 9.55322C9.21242 9.55322 10.3752 9.07912 11.2325 8.2352C12.0898 7.39129 12.5714 6.2467 12.5714 5.05322C12.5714 3.85975 12.0898 2.71516 11.2325 1.87124C10.3752 1.02733 9.21242 0.553223 8 0.553223C6.78758 0.553223 5.62482 1.02733 4.76751 1.87124C3.9102 2.71516 3.42857 3.85975 3.42857 5.05322C3.42857 6.2467 3.9102 7.39129 4.76751 8.2352C5.62482 9.07912 6.78758 9.55322 8 9.55322ZM6.36786 11.2407C2.85 11.2407 0 14.0462 0 17.5091C0 18.0856 0.475 18.5532 1.06071 18.5532H14.9393C15.525 18.5532 16 18.0856 16 17.5091C16 14.0462 13.15 11.2407 9.63214 11.2407H6.36786Z" fill="#9CA3AF"/>
</svg>
