<svg width="36" height="36" viewBox="0 0 36 36" fill="none" xmlns="http://www.w3.org/2000/svg">
<g clip-path="url(#clip0_625_97)">
<rect width="36" height="36" rx="9" fill="#F9FAFB"/>
<path d="M5.625 39.375H16.9947C20.6806 39.375 22.8032 35.1862 20.6235 32.2139L13.0038 21.8234C11.2058 19.3716 7.54418 19.3716 5.74618 21.8234L1.99618 26.937C1.43017 27.7089 1.125 28.641 1.125 29.5982V34.875C1.125 37.3603 3.13972 39.375 5.625 39.375Z" fill="#ECECFD"/>
<path d="M31.5 41.625H12.5436C8.80474 41.625 6.69663 37.3298 8.98388 34.3721L21.5653 18.1031C23.3668 15.7736 26.8832 15.7736 28.6847 18.1031L35.0597 26.3466C35.6693 27.1349 36 28.1031 36 29.0995V37.125C36 39.6103 33.9853 41.625 31.5 41.625Z" fill="#0D0DE6"/>
<rect x="7.875" y="6.75" width="6.75" height="6.75" rx="3.375" fill="#3232F6"/>
</g>
<rect x="0.5625" y="0.5625" width="34.875" height="34.875" rx="8.4375" stroke="#E5E7EB" stroke-width="1.125"/>
<defs>
<clipPath id="clip0_625_97">
<rect width="36" height="36" rx="9" fill="white"/>
</clipPath>
</defs>
</svg>
