<svg width="12" height="12" viewBox="0 0 12 12" fill="none" xmlns="http://www.w3.org/2000/svg">
<path d="M3.45243 0H8.54757C9.49566 0 10.3583 0.386719 10.9841 1.00781C11.6109 1.62988 12 2.48828 12 3.43164V8.56934C12 9.51074 11.6109 10.3682 10.9861 10.9902L10.9841 10.9922C10.3573 11.6143 9.49468 12 8.54855 12H3.45243C2.50336 12 1.63976 11.6133 1.01392 10.9922L0.990339 10.9658C0.379237 10.3467 0 9.49902 0 8.56836V3.43164C0 2.4873 0.388079 1.62988 1.01392 1.00781C1.63976 0.385742 2.50237 0 3.45243 0ZM8.99067 3.0293L8.99754 3.04004H11.1197C11.0342 2.48535 10.768 1.9873 10.3848 1.60547C9.91321 1.13672 9.26281 0.845703 8.54757 0.845703H7.67611L8.99067 3.0293ZM8.00917 3.04004L6.68774 0.845703H3.78942L5.12658 3.04004H8.00917ZM4.13722 3.04004L2.84428 0.916992C2.3717 1.03027 1.94826 1.27344 1.6152 1.60547C1.23203 1.98633 0.96676 2.48535 0.880301 3.04004H4.13722ZM11.1492 3.88574H0.850827V8.56934C0.850827 9.26953 1.13476 9.90723 1.59358 10.374L1.6152 10.3945C2.08679 10.8633 2.73817 11.1553 3.45243 11.1553H8.54757C9.26281 11.1553 9.91321 10.8643 10.3838 10.3965L10.3858 10.3945C10.8564 9.92676 11.1492 9.28027 11.1492 8.56934V3.88574ZM5.00573 5.36621L7.64172 7.07031C7.68397 7.09766 7.72229 7.13281 7.75274 7.17578C7.87261 7.34863 7.82839 7.58594 7.6545 7.70508L5.02931 9.24512C4.96348 9.29883 4.87899 9.33105 4.78566 9.33105C4.57344 9.33105 4.40151 9.16016 4.40151 8.94922V5.67871H4.40347C4.40347 5.60352 4.42607 5.52734 4.47225 5.46094C4.59407 5.28809 4.83282 5.24609 5.00573 5.36621Z" fill="url(#paint0_radial_16631_229)"/>
<path d="M3.45243 0H8.54757C9.49566 0 10.3583 0.386719 10.9841 1.00781C11.6109 1.62988 12 2.48828 12 3.43164V8.56934C12 9.51074 11.6109 10.3682 10.9861 10.9902L10.9841 10.9922C10.3573 11.6143 9.49468 12 8.54855 12H3.45243C2.50336 12 1.63976 11.6133 1.01392 10.9922L0.990339 10.9658C0.379237 10.3467 0 9.49902 0 8.56836V3.43164C0 2.4873 0.388079 1.62988 1.01392 1.00781C1.63976 0.385742 2.50237 0 3.45243 0ZM8.99067 3.0293L8.99754 3.04004H11.1197C11.0342 2.48535 10.768 1.9873 10.3848 1.60547C9.91321 1.13672 9.26281 0.845703 8.54757 0.845703H7.67611L8.99067 3.0293ZM8.00917 3.04004L6.68774 0.845703H3.78942L5.12658 3.04004H8.00917ZM4.13722 3.04004L2.84428 0.916992C2.3717 1.03027 1.94826 1.27344 1.6152 1.60547C1.23203 1.98633 0.96676 2.48535 0.880301 3.04004H4.13722ZM11.1492 3.88574H0.850827V8.56934C0.850827 9.26953 1.13476 9.90723 1.59358 10.374L1.6152 10.3945C2.08679 10.8633 2.73817 11.1553 3.45243 11.1553H8.54757C9.26281 11.1553 9.91321 10.8643 10.3838 10.3965L10.3858 10.3945C10.8564 9.92676 11.1492 9.28027 11.1492 8.56934V3.88574ZM5.00573 5.36621L7.64172 7.07031C7.68397 7.09766 7.72229 7.13281 7.75274 7.17578C7.87261 7.34863 7.82839 7.58594 7.6545 7.70508L5.02931 9.24512C4.96348 9.29883 4.87899 9.33105 4.78566 9.33105C4.57344 9.33105 4.40151 9.16016 4.40151 8.94922V5.67871H4.40347C4.40347 5.60352 4.42607 5.52734 4.47225 5.46094C4.59407 5.28809 4.83282 5.24609 5.00573 5.36621Z" fill="url(#paint1_radial_16631_229)"/>
<defs>
<radialGradient id="paint0_radial_16631_229" cx="0" cy="0" r="1" gradientUnits="userSpaceOnUse" gradientTransform="translate(10.14 13.62) rotate(-115.776) scale(16.3642 24.3399)">
<stop offset="0.24392" stop-color="#FF1B90"/>
<stop offset="0.436673" stop-color="#F80261"/>
<stop offset="0.688476" stop-color="#ED00C0"/>
<stop offset="0.776787" stop-color="#C500E9"/>
<stop offset="0.893155" stop-color="#7017FF"/>
</radialGradient>
<radialGradient id="paint1_radial_16631_229" cx="0" cy="0" r="1" gradientUnits="userSpaceOnUse" gradientTransform="translate(4.35 11.586) rotate(-57.4396) scale(7.09045 7.37508)">
<stop stop-color="#FFD600"/>
<stop offset="0.484375" stop-color="#FF6930"/>
<stop offset="0.734375" stop-color="#FE3B36"/>
<stop offset="1" stop-color="#FE3B36" stop-opacity="0"/>
</radialGradient>
</defs>
</svg>
